<mxfile host="app.diagrams.net" modified="2023-01-07T04:31:17.123Z" agent="5.0 (Macintosh; Intel Mac OS X 10_15_7) AppleWebKit/537.36 (KHTML, like Gecko) Chrome/108.0.0.0 Safari/537.36" etag="mxRTyNVltiBtJLHE0ooi" version="20.3.0" type="github">
  <diagram id="Pz8v3FjEGnFZLRO95eSS" name="Page-1">
    <mxGraphModel dx="2066" dy="1060" grid="1" gridSize="10" guides="1" tooltips="1" connect="1" arrows="1" fold="1" page="1" pageScale="1" pageWidth="850" pageHeight="1100" math="0" shadow="0">
      <root>
        <mxCell id="0" />
        <mxCell id="1" parent="0" />
        <mxCell id="TsmZRcU1ou4859HRZtsh-2" value="" style="rounded=0;whiteSpace=wrap;html=1;fillColor=none;strokeColor=#666666;fontColor=#333333;shadow=0;dashed=1;strokeWidth=3;" parent="1" vertex="1">
          <mxGeometry x="610" y="170" width="420" height="520" as="geometry" />
        </mxCell>
        <mxCell id="TsmZRcU1ou4859HRZtsh-1" value="BeagleBoard&lt;br&gt;1GHz ARM Cortex A8&lt;br&gt;512MB RAM" style="rounded=0;whiteSpace=wrap;html=1;fillColor=#dae8fc;strokeColor=#6c8ebf;shadow=0;" parent="1" vertex="1">
          <mxGeometry x="1200" y="330" width="200" height="270" as="geometry" />
        </mxCell>
        <mxCell id="TsmZRcU1ou4859HRZtsh-3" value="3-Phase Motor Driver" style="rounded=0;whiteSpace=wrap;html=1;fillColor=#f5f5f5;strokeColor=#666666;fontColor=#333333;shadow=0;" parent="1" vertex="1">
          <mxGeometry x="640" y="280" width="170" height="70" as="geometry" />
        </mxCell>
        <mxCell id="TsmZRcU1ou4859HRZtsh-5" value="3-Phase Motor Driver" style="rounded=0;whiteSpace=wrap;html=1;fillColor=#f5f5f5;strokeColor=#666666;fontColor=#333333;shadow=0;" parent="1" vertex="1">
          <mxGeometry x="640" y="380" width="170" height="70" as="geometry" />
        </mxCell>
        <mxCell id="TsmZRcU1ou4859HRZtsh-8" value="Regulators" style="rounded=0;whiteSpace=wrap;html=1;fillColor=#f5f5f5;strokeColor=#666666;fontColor=#333333;shadow=0;" parent="1" vertex="1">
          <mxGeometry x="880" y="280" width="95" height="270" as="geometry" />
        </mxCell>
        <mxCell id="TsmZRcU1ou4859HRZtsh-9" value="Brushless Gimbal Motor (Yaw)" style="rounded=0;whiteSpace=wrap;html=1;fillColor=#f8cecc;strokeColor=#b85450;shadow=0;" parent="1" vertex="1">
          <mxGeometry x="210" y="200" width="230" height="70" as="geometry" />
        </mxCell>
        <mxCell id="TsmZRcU1ou4859HRZtsh-10" value="Brushless Gimbal Motor (Pitch)" style="rounded=0;whiteSpace=wrap;html=1;fillColor=#f8cecc;strokeColor=#b85450;shadow=0;" parent="1" vertex="1">
          <mxGeometry x="210" y="290" width="230" height="70" as="geometry" />
        </mxCell>
        <mxCell id="TsmZRcU1ou4859HRZtsh-11" value="Nerf Motor Driver FETs" style="rounded=0;whiteSpace=wrap;html=1;fillColor=#f5f5f5;strokeColor=#666666;fontColor=#333333;shadow=0;" parent="1" vertex="1">
          <mxGeometry x="640" y="480" width="170" height="70" as="geometry" />
        </mxCell>
        <mxCell id="TsmZRcU1ou4859HRZtsh-12" value="Nerf Motor #1" style="rounded=0;whiteSpace=wrap;html=1;fillColor=#f8cecc;strokeColor=#b85450;shadow=0;" parent="1" vertex="1">
          <mxGeometry x="210" y="400" width="150" height="70" as="geometry" />
        </mxCell>
        <mxCell id="TsmZRcU1ou4859HRZtsh-13" value="Nerf Motor #2" style="rounded=0;whiteSpace=wrap;html=1;fillColor=#f8cecc;strokeColor=#b85450;shadow=0;" parent="1" vertex="1">
          <mxGeometry x="210" y="480" width="150" height="70" as="geometry" />
        </mxCell>
        <mxCell id="TsmZRcU1ou4859HRZtsh-14" value="Nerf Motor #3" style="rounded=0;whiteSpace=wrap;html=1;fillColor=#f8cecc;strokeColor=#b85450;shadow=0;" parent="1" vertex="1">
          <mxGeometry x="210" y="560" width="150" height="70" as="geometry" />
        </mxCell>
        <mxCell id="TsmZRcU1ou4859HRZtsh-15" value="USB Camera" style="rounded=0;whiteSpace=wrap;html=1;fillColor=#fff2cc;strokeColor=#d6b656;shadow=0;" parent="1" vertex="1">
          <mxGeometry x="210" y="670" width="150" height="70" as="geometry" />
        </mxCell>
        <mxCell id="TsmZRcU1ou4859HRZtsh-16" value="USB2.0 Connector" style="rounded=0;whiteSpace=wrap;html=1;fillColor=#f5f5f5;strokeColor=#666666;fontColor=#333333;shadow=0;" parent="1" vertex="1">
          <mxGeometry x="640" y="580" width="170" height="70" as="geometry" />
        </mxCell>
        <mxCell id="TsmZRcU1ou4859HRZtsh-17" value="" style="shape=flexArrow;endArrow=classic;startArrow=classic;html=1;rounded=0;strokeWidth=3;fillColor=default;" parent="1" edge="1">
          <mxGeometry width="100" height="100" relative="1" as="geometry">
            <mxPoint x="1200" y="470" as="sourcePoint" />
            <mxPoint x="1030" y="470" as="targetPoint" />
          </mxGeometry>
        </mxCell>
        <mxCell id="TsmZRcU1ou4859HRZtsh-19" value="" style="endArrow=classic;startArrow=classic;html=1;rounded=0;exitX=1;exitY=0.5;exitDx=0;exitDy=0;entryX=0;entryY=0.5;entryDx=0;entryDy=0;edgeStyle=orthogonalEdgeStyle;strokeWidth=3;fillColor=#fff2cc;strokeColor=#d6b656;" parent="1" source="TsmZRcU1ou4859HRZtsh-15" target="TsmZRcU1ou4859HRZtsh-16" edge="1">
          <mxGeometry width="50" height="50" relative="1" as="geometry">
            <mxPoint x="620" y="580" as="sourcePoint" />
            <mxPoint x="670" y="530" as="targetPoint" />
            <Array as="points">
              <mxPoint x="520" y="705" />
              <mxPoint x="520" y="615" />
            </Array>
          </mxGeometry>
        </mxCell>
        <mxCell id="TsmZRcU1ou4859HRZtsh-20" value="" style="endArrow=none;startArrow=classic;html=1;rounded=0;exitX=1;exitY=0.5;exitDx=0;exitDy=0;entryX=0;entryY=0.75;entryDx=0;entryDy=0;edgeStyle=orthogonalEdgeStyle;endFill=0;strokeWidth=3;fillColor=#f8cecc;strokeColor=#b85450;" parent="1" target="TsmZRcU1ou4859HRZtsh-11" edge="1">
          <mxGeometry width="50" height="50" relative="1" as="geometry">
            <mxPoint x="360" y="595" as="sourcePoint" />
            <mxPoint x="640" y="505" as="targetPoint" />
            <Array as="points">
              <mxPoint x="480" y="595" />
              <mxPoint x="480" y="533" />
            </Array>
          </mxGeometry>
        </mxCell>
        <mxCell id="TsmZRcU1ou4859HRZtsh-21" value="" style="endArrow=none;startArrow=classic;html=1;rounded=0;exitX=1;exitY=0.5;exitDx=0;exitDy=0;edgeStyle=orthogonalEdgeStyle;entryX=0;entryY=0.5;entryDx=0;entryDy=0;endFill=0;strokeWidth=3;fillColor=#f8cecc;strokeColor=#b85450;" parent="1" source="TsmZRcU1ou4859HRZtsh-13" target="TsmZRcU1ou4859HRZtsh-11" edge="1">
          <mxGeometry width="50" height="50" relative="1" as="geometry">
            <mxPoint x="360" y="510" as="sourcePoint" />
            <mxPoint x="640" y="420" as="targetPoint" />
            <Array as="points" />
          </mxGeometry>
        </mxCell>
        <mxCell id="TsmZRcU1ou4859HRZtsh-22" value="" style="endArrow=none;startArrow=classic;html=1;rounded=0;exitX=1;exitY=0.5;exitDx=0;exitDy=0;entryX=0;entryY=0.25;entryDx=0;entryDy=0;edgeStyle=orthogonalEdgeStyle;endFill=0;strokeWidth=3;fillColor=#f8cecc;strokeColor=#b85450;" parent="1" target="TsmZRcU1ou4859HRZtsh-11" edge="1">
          <mxGeometry width="50" height="50" relative="1" as="geometry">
            <mxPoint x="360" y="442.5" as="sourcePoint" />
            <mxPoint x="640" y="380" as="targetPoint" />
            <Array as="points">
              <mxPoint x="480" y="442" />
              <mxPoint x="480" y="498" />
            </Array>
          </mxGeometry>
        </mxCell>
        <mxCell id="TsmZRcU1ou4859HRZtsh-23" value="" style="endArrow=none;startArrow=classic;html=1;rounded=0;exitX=1;exitY=0.5;exitDx=0;exitDy=0;entryX=0;entryY=0.25;entryDx=0;entryDy=0;edgeStyle=orthogonalEdgeStyle;endFill=0;strokeWidth=3;fillColor=#f8cecc;strokeColor=#b85450;" parent="1" source="TsmZRcU1ou4859HRZtsh-10" edge="1">
          <mxGeometry width="50" height="50" relative="1" as="geometry">
            <mxPoint x="360" y="360.02" as="sourcePoint" />
            <mxPoint x="640" y="415.02" as="targetPoint" />
            <Array as="points">
              <mxPoint x="520" y="325" />
              <mxPoint x="520" y="415" />
            </Array>
          </mxGeometry>
        </mxCell>
        <mxCell id="TsmZRcU1ou4859HRZtsh-24" value="" style="endArrow=none;startArrow=classic;html=1;rounded=0;exitX=1;exitY=0.5;exitDx=0;exitDy=0;entryX=0;entryY=0.5;entryDx=0;entryDy=0;edgeStyle=orthogonalEdgeStyle;endFill=0;strokeWidth=3;fillColor=#f8cecc;strokeColor=#b85450;" parent="1" target="TsmZRcU1ou4859HRZtsh-3" edge="1">
          <mxGeometry width="50" height="50" relative="1" as="geometry">
            <mxPoint x="440" y="240" as="sourcePoint" />
            <mxPoint x="640" y="330.02" as="targetPoint" />
            <Array as="points">
              <mxPoint x="560" y="240" />
              <mxPoint x="560" y="315" />
            </Array>
          </mxGeometry>
        </mxCell>
        <mxCell id="CuKeXwIXwjn4rIFkNseN-1" value="Motor Encoder&lt;br&gt;Board (I2C)" style="rounded=0;whiteSpace=wrap;html=1;fillColor=#f8cecc;strokeColor=#b85450;shadow=0;" vertex="1" parent="1">
          <mxGeometry x="80" y="200" width="120" height="70" as="geometry" />
        </mxCell>
        <mxCell id="CuKeXwIXwjn4rIFkNseN-2" value="Motor Encoder&lt;br&gt;Board (I2C)" style="rounded=0;whiteSpace=wrap;html=1;fillColor=#f8cecc;strokeColor=#b85450;shadow=0;" vertex="1" parent="1">
          <mxGeometry x="80" y="290" width="120" height="70" as="geometry" />
        </mxCell>
        <mxCell id="CuKeXwIXwjn4rIFkNseN-4" value="GPIO Expansion Header" style="text;html=1;strokeColor=none;fillColor=none;align=center;verticalAlign=middle;whiteSpace=wrap;rounded=0;" vertex="1" parent="1">
          <mxGeometry x="1060" y="480" width="110" height="30" as="geometry" />
        </mxCell>
      </root>
    </mxGraphModel>
  </diagram>
</mxfile>
